<?xml version="1.0" encoding="UTF-8" standalone="no"?>
<!DOCTYPE svg PUBLIC "-//W3C//DTD SVG 1.1//EN"
 "http://www.w3.org/Graphics/SVG/1.1/DTD/svg11.dtd">
<!-- Generated by graphviz version 2.47.0 (20210316.0004)
 -->
<!-- Title: dbml Pages: 1 -->
<svg width="1219pt" height="970pt"
 viewBox="0.00 0.00 1219.21 970.35" xmlns="http://www.w3.org/2000/svg" xmlns:xlink="http://www.w3.org/1999/xlink">
<g id="graph0" class="graph" transform="scale(1 1) rotate(0) translate(4 966.35)">
<title>dbml</title>
<!-- Product -->
<g id="Product" class="node">
<title>Product</title>
<ellipse fill="none" stroke="black" stroke-width="0" cx="948.17" cy="-444.96" rx="263.09" ry="214.92"/>
<polygon fill="#1d71b8" stroke="transparent" points="764.17,-534.96 764.17,-594.96 1132.17,-594.96 1132.17,-534.96 764.17,-534.96"/>
<polygon fill="none" stroke="#29235c" points="764.17,-534.96 764.17,-594.96 1132.17,-594.96 1132.17,-534.96 764.17,-534.96"/>
<text text-anchor="start" x="830.79" y="-556.16" font-family="Helvetica,sans-Serif" font-weight="bold" font-size="32.00" fill="#ffffff"> &#160;&#160;&#160;&#160;&#160;&#160;Product &#160;&#160;&#160;&#160;&#160;&#160;</text>
<polygon fill="#e7e2dd" stroke="transparent" points="764.17,-474.96 764.17,-534.96 1132.17,-534.96 1132.17,-474.96 764.17,-474.96"/>
<polygon fill="none" stroke="#29235c" points="764.17,-474.96 764.17,-534.96 1132.17,-534.96 1132.17,-474.96 764.17,-474.96"/>
<text text-anchor="start" x="775.17" y="-496.16" font-family="Helvetica,sans-Serif" font-weight="bold" font-size="32.00" fill="#29235c">id</text>
<text text-anchor="start" x="800.06" y="-496.16" font-family="Helvetica,sans-Serif" font-size="32.00" fill="#29235c"> &#160;&#160;&#160;</text>
<text text-anchor="start" x="978.95" y="-496.16" font-family="Helvetica,sans-Serif" font-style="italic" font-size="32.00" fill="#29235c">INTEGER</text>
<polygon fill="#e7e2dd" stroke="transparent" points="764.17,-414.96 764.17,-474.96 1132.17,-474.96 1132.17,-414.96 764.17,-414.96"/>
<polygon fill="none" stroke="#29235c" points="764.17,-414.96 764.17,-474.96 1132.17,-474.96 1132.17,-414.96 764.17,-414.96"/>
<text text-anchor="start" x="775.04" y="-435.16" font-family="Helvetica,sans-Serif" font-size="32.00" fill="#29235c">description &#160;&#160;&#160;</text>
<text text-anchor="start" x="964.95" y="-436.16" font-family="Helvetica,sans-Serif" font-style="italic" font-size="32.00" fill="#29235c">VARCHAR</text>
<polygon fill="#e7e2dd" stroke="transparent" points="764.17,-354.96 764.17,-414.96 1132.17,-414.96 1132.17,-354.96 764.17,-354.96"/>
<polygon fill="none" stroke="#29235c" points="764.17,-354.96 764.17,-414.96 1132.17,-414.96 1132.17,-354.96 764.17,-354.96"/>
<text text-anchor="start" x="775.17" y="-375.16" font-family="Helvetica,sans-Serif" font-size="32.00" fill="#29235c">photo_url &#160;&#160;&#160;</text>
<text text-anchor="start" x="964.74" y="-376.16" font-family="Helvetica,sans-Serif" font-style="italic" font-size="32.00" fill="#29235c">VARCHAR</text>
<polygon fill="#e7e2dd" stroke="transparent" points="764.17,-294.96 764.17,-354.96 1132.17,-354.96 1132.17,-294.96 764.17,-294.96"/>
<polygon fill="none" stroke="#29235c" points="764.17,-294.96 764.17,-354.96 1132.17,-354.96 1132.17,-294.96 764.17,-294.96"/>
<text text-anchor="start" x="775.17" y="-315.16" font-family="Helvetica,sans-Serif" font-size="32.00" fill="#29235c">unit_type &#160;&#160;&#160;</text>
<text text-anchor="start" x="964.74" y="-316.16" font-family="Helvetica,sans-Serif" font-style="italic" font-size="32.00" fill="#29235c">VARCHAR</text>
<polygon fill="none" stroke="#29235c" stroke-width="2" points="763.17,-293.96 763.17,-595.96 1133.17,-595.96 1133.17,-293.96 763.17,-293.96"/>
</g>
<!-- ProductTransaction -->
<g id="ProductTransaction" class="node">
<title>ProductTransaction</title>
<ellipse fill="none" stroke="black" stroke-width="0" cx="324.56" cy="-704.96" rx="324.62" ry="257.27"/>
<polygon fill="#1d71b8" stroke="transparent" points="97.56,-824.96 97.56,-884.96 552.56,-884.96 552.56,-824.96 97.56,-824.96"/>
<polygon fill="none" stroke="#29235c" points="97.56,-824.96 97.56,-884.96 552.56,-884.96 552.56,-824.96 97.56,-824.96"/>
<text text-anchor="start" x="124.12" y="-846.16" font-family="Helvetica,sans-Serif" font-weight="bold" font-size="32.00" fill="#ffffff"> &#160;&#160;&#160;&#160;&#160;&#160;ProductTransaction &#160;&#160;&#160;&#160;&#160;&#160;</text>
<polygon fill="#e7e2dd" stroke="transparent" points="97.56,-764.96 97.56,-824.96 552.56,-824.96 552.56,-764.96 97.56,-764.96"/>
<polygon fill="none" stroke="#29235c" points="97.56,-764.96 97.56,-824.96 552.56,-824.96 552.56,-764.96 97.56,-764.96"/>
<text text-anchor="start" x="108.56" y="-786.16" font-family="Helvetica,sans-Serif" font-weight="bold" font-size="32.00" fill="#29235c">id</text>
<text text-anchor="start" x="133.45" y="-786.16" font-family="Helvetica,sans-Serif" font-size="32.00" fill="#29235c"> &#160;&#160;&#160;</text>
<text text-anchor="start" x="399.34" y="-786.16" font-family="Helvetica,sans-Serif" font-style="italic" font-size="32.00" fill="#29235c">INTEGER</text>
<polygon fill="#e7e2dd" stroke="transparent" points="97.56,-704.96 97.56,-764.96 552.56,-764.96 552.56,-704.96 97.56,-704.96"/>
<polygon fill="none" stroke="#29235c" points="97.56,-704.96 97.56,-764.96 552.56,-764.96 552.56,-704.96 97.56,-704.96"/>
<text text-anchor="start" x="108.56" y="-725.16" font-family="Helvetica,sans-Serif" font-size="32.00" fill="#29235c">product_id &#160;&#160;&#160;</text>
<text text-anchor="start" x="399.34" y="-726.16" font-family="Helvetica,sans-Serif" font-style="italic" font-size="32.00" fill="#29235c">INTEGER</text>
<polygon fill="#e7e2dd" stroke="transparent" points="97.56,-644.96 97.56,-704.96 552.56,-704.96 552.56,-644.96 97.56,-644.96"/>
<polygon fill="none" stroke="#29235c" points="97.56,-644.96 97.56,-704.96 552.56,-704.96 552.56,-644.96 97.56,-644.96"/>
<text text-anchor="start" x="108.56" y="-665.16" font-family="Helvetica,sans-Serif" font-size="32.00" fill="#29235c">transaction_type &#160;&#160;&#160;</text>
<text text-anchor="start" x="385.14" y="-666.16" font-family="Helvetica,sans-Serif" font-style="italic" font-size="32.00" fill="#29235c">VARCHAR</text>
<polygon fill="#e7e2dd" stroke="transparent" points="97.56,-584.96 97.56,-644.96 552.56,-644.96 552.56,-584.96 97.56,-584.96"/>
<polygon fill="none" stroke="#29235c" points="97.56,-584.96 97.56,-644.96 552.56,-644.96 552.56,-584.96 97.56,-584.96"/>
<text text-anchor="start" x="108.56" y="-605.16" font-family="Helvetica,sans-Serif" font-size="32.00" fill="#29235c">quantity &#160;&#160;&#160;</text>
<text text-anchor="start" x="399.34" y="-606.16" font-family="Helvetica,sans-Serif" font-style="italic" font-size="32.00" fill="#29235c">INTEGER</text>
<polygon fill="#e7e2dd" stroke="transparent" points="97.56,-524.96 97.56,-584.96 552.56,-584.96 552.56,-524.96 97.56,-524.96"/>
<polygon fill="none" stroke="#29235c" points="97.56,-524.96 97.56,-584.96 552.56,-584.96 552.56,-524.96 97.56,-524.96"/>
<text text-anchor="start" x="108.51" y="-545.16" font-family="Helvetica,sans-Serif" font-size="32.00" fill="#29235c">transaction_date &#160;&#160;&#160;</text>
<text text-anchor="start" x="380.18" y="-546.16" font-family="Helvetica,sans-Serif" font-style="italic" font-size="32.00" fill="#29235c">DATETIME</text>
<polygon fill="none" stroke="#29235c" stroke-width="2" points="96.06,-523.96 96.06,-885.96 553.06,-885.96 553.06,-523.96 96.06,-523.96"/>
</g>
<!-- ProductTransaction&#45;&gt;Product -->
<!-- ProductTransaction&#45;&gt;Product -->
<g id="edge2" class="edge">
<title>ProductTransaction:e&#45;&gt;Product:w</title>
<path fill="none" stroke="#29235c" stroke-width="3" d="M553.56,-734.96C688.35,-734.96 628.13,-516.49 753.02,-505.4"/>
<polygon fill="#29235c" stroke="#29235c" stroke-width="3" points="753.33,-508.89 763.17,-504.96 753.03,-501.89 753.33,-508.89"/>
<text text-anchor="middle" x="756.95" y="-514.56" font-family="Helvetica,sans-Serif" font-size="32.00" fill="#29235c">*</text>
<text text-anchor="middle" x="544.67" y="-744.56" font-family="Helvetica,sans-Serif" font-size="32.00" fill="#29235c">1</text>
</g>
<!-- ProductVariant -->
<g id="ProductVariant" class="node">
<title>ProductVariant</title>
<ellipse fill="none" stroke="black" stroke-width="0" cx="324.56" cy="-214.96" rx="255.95" ry="214.92"/>
<polygon fill="#1d71b8" stroke="transparent" points="145.56,-304.96 145.56,-364.96 503.56,-364.96 503.56,-304.96 145.56,-304.96"/>
<polygon fill="none" stroke="#29235c" points="145.56,-304.96 145.56,-364.96 503.56,-364.96 503.56,-304.96 145.56,-304.96"/>
<text text-anchor="start" x="156.51" y="-326.16" font-family="Helvetica,sans-Serif" font-weight="bold" font-size="32.00" fill="#ffffff"> &#160;&#160;&#160;&#160;&#160;&#160;ProductVariant &#160;&#160;&#160;&#160;&#160;&#160;</text>
<polygon fill="#e7e2dd" stroke="transparent" points="145.56,-244.96 145.56,-304.96 503.56,-304.96 503.56,-244.96 145.56,-244.96"/>
<polygon fill="none" stroke="#29235c" points="145.56,-244.96 145.56,-304.96 503.56,-304.96 503.56,-244.96 145.56,-244.96"/>
<text text-anchor="start" x="156.56" y="-266.16" font-family="Helvetica,sans-Serif" font-weight="bold" font-size="32.00" fill="#29235c">id</text>
<text text-anchor="start" x="181.45" y="-266.16" font-family="Helvetica,sans-Serif" font-size="32.00" fill="#29235c"> &#160;&#160;&#160;</text>
<text text-anchor="start" x="350.34" y="-266.16" font-family="Helvetica,sans-Serif" font-style="italic" font-size="32.00" fill="#29235c">INTEGER</text>
<polygon fill="#e7e2dd" stroke="transparent" points="145.56,-184.96 145.56,-244.96 503.56,-244.96 503.56,-184.96 145.56,-184.96"/>
<polygon fill="none" stroke="#29235c" points="145.56,-184.96 145.56,-244.96 503.56,-244.96 503.56,-184.96 145.56,-184.96"/>
<text text-anchor="start" x="156.56" y="-205.16" font-family="Helvetica,sans-Serif" font-size="32.00" fill="#29235c">product_id &#160;&#160;&#160;</text>
<text text-anchor="start" x="350.34" y="-206.16" font-family="Helvetica,sans-Serif" font-style="italic" font-size="32.00" fill="#29235c">INTEGER</text>
<polygon fill="#e7e2dd" stroke="transparent" points="145.56,-124.96 145.56,-184.96 503.56,-184.96 503.56,-124.96 145.56,-124.96"/>
<polygon fill="none" stroke="#29235c" points="145.56,-124.96 145.56,-184.96 503.56,-184.96 503.56,-124.96 145.56,-124.96"/>
<text text-anchor="start" x="156.56" y="-145.16" font-family="Helvetica,sans-Serif" font-size="32.00" fill="#29235c">size &#160;&#160;&#160;</text>
<text text-anchor="start" x="336.14" y="-146.16" font-family="Helvetica,sans-Serif" font-style="italic" font-size="32.00" fill="#29235c">VARCHAR</text>
<polygon fill="#e7e2dd" stroke="transparent" points="145.56,-64.96 145.56,-124.96 503.56,-124.96 503.56,-64.96 145.56,-64.96"/>
<polygon fill="none" stroke="#29235c" points="145.56,-64.96 145.56,-124.96 503.56,-124.96 503.56,-64.96 145.56,-64.96"/>
<text text-anchor="start" x="156.56" y="-85.16" font-family="Helvetica,sans-Serif" font-size="32.00" fill="#29235c">color &#160;&#160;&#160;</text>
<text text-anchor="start" x="336.14" y="-86.16" font-family="Helvetica,sans-Serif" font-style="italic" font-size="32.00" fill="#29235c">VARCHAR</text>
<polygon fill="none" stroke="#29235c" stroke-width="2" points="144.56,-63.96 144.56,-365.96 504.56,-365.96 504.56,-63.96 144.56,-63.96"/>
</g>
<!-- ProductVariant&#45;&gt;Product -->
<!-- ProductVariant&#45;&gt;Product -->
<g id="edge4" class="edge">
<title>ProductVariant:e&#45;&gt;Product:w</title>
<path fill="none" stroke="#29235c" stroke-width="3" d="M504.56,-214.96C673.71,-214.96 593.93,-493.19 752.87,-504.6"/>
<polygon fill="#29235c" stroke="#29235c" stroke-width="3" points="753.05,-508.11 763.17,-504.96 753.3,-501.11 753.05,-508.11"/>
<text text-anchor="middle" x="756.95" y="-476.16" font-family="Helvetica,sans-Serif" font-size="32.00" fill="#29235c">*</text>
<text text-anchor="middle" x="513.46" y="-214.96" font-family="Helvetica,sans-Serif" font-size="32.00" fill="#29235c">1</text>
</g>
</g>
</svg>
